<svg aria-hidden="true" style="width:0;height:0;position:absolute;overflow:hidden" xmlns="http://www.w3.org/2000/svg"><defs><symbol id="cat-logo" viewBox="0 0 29 32"><path d="M.083 15.388c.088-1.078.183-2.238.526-3.272.176-.694.52-1.328.915-1.899.377-.59 1.247-.936 1.968-.658.496.197.923.584 1.236 1.024.481.559.714 1.278 1.072 1.899.393.797.612 1.675.874 2.508.374 1.846-.116 3.569-1.628 4.394-.87.52-2.103.6-3.064.215-.669-.253-1.094-.836-1.436-1.421-.445-.857-.644-1.77-.498-2.763l.035-.028z"/><path d="M.216 25.18c.279-1.641 1.387-2.996 2.755-3.886 1.244-.861 2.586-1.577 3.788-2.485.771-.864 1.146-1.992 1.832-2.926 1.141-1.355 3.028-1.737 4.719-1.827 2.166-.079 4.61-.053 6.348 1.431 1.004.99 1.255 2.518 2.368 3.425 1.067.852 2.27 1.458 3.387 2.242 1.539 1.025 2.972 2.606 2.975 4.566.045 1.531-.537 3.04-1.295 4.345-.814 1.264-2.27 2.037-3.778 1.926-1.579.02-2.992-.845-4.542-.949-1.531.368-3.127.593-4.717.534-1.516.104-2.991-.366-4.462-.523-1.829.318-3.637 1.229-5.534.84-1.705-.394-2.879-1.897-3.354-3.52-.365-.994-.726-2.132-.49-3.192zM5.116 8.708c.055-1.351.282-2.676.596-3.998C6.235 2.952 6.83.755 8.738.074c1.814-.286 2.973 1.65 3.594 3.107.881 2.016 1.498 4.175 1.705 6.371.11 2.028-1.695 3.43-3.536 3.722-1.687.507-3.725-.051-4.622-1.656-.565-.87-.779-1.97-.763-2.91zM14.544 9.165c.169-1.029.274-2.121.641-3.066.079-.793.546-1.464.678-2.237.41-.499.376-1.125.832-1.561.22-.496.514-.966.915-1.373a2.397 2.397 0 0 1 1.266-.794c.713-.379 1.394.126 1.937.474.333.287.423.723.829.947.131.592.605 1.044.676 1.662.347.878.61 1.821.728 2.81.233.99.395 2.159.375 3.138-.178.826-.218 1.708-.729 2.398-.225.402-.645.799-.964 1.125-.913.683-2.075.835-3.217.72-.876-.207-1.714-.374-2.435-.903-.473-.323-.921-.686-1.144-1.213-.29-.617-.499-1.434-.389-2.128z"/><path d="M22.238 13.84c.214-.63.42-1.216.731-1.792.179-.468.481-.935.727-1.373.427-.407.744-.828 1.236-1.052.742-.435 1.653-.036 2.059.595.3.453.601.905.755 1.418.429.986.548 2.102.638 3.226.181.911.239 1.928-.18 2.768-.132.488-.413 1.039-.896 1.309-.393.758-1.531.964-2.372.884-.879-.077-1.632-.422-2.361-.846-.593-.517-1.041-1.128-.928-1.946-.313-.944.285-2.328.592-3.192z"/></symbol></defs></svg>