<svg aria-hidden="true" style="position: absolute; width: 0; height: 0; overflow: hidden;" version="1.1" xmlns="http://www.w3.org/2000/svg" xmlns:xlink="http://www.w3.org/1999/xlink">
    <defs>
        <symbol id="cat-logo" viewBox="0 0 29 32">
            <path d="M0.083 15.388c0.088-1.078 0.183-2.238 0.526-3.272 0.176-0.694 0.52-1.328 0.915-1.899 0.377-0.59 1.247-0.936 1.968-0.658 0.496 0.197 0.923 0.584 1.236 1.024 0.481 0.559 0.714 1.278 1.072 1.899 0.393 0.797 0.612 1.675 0.874 2.508 0.374 1.846-0.116 3.569-1.628 4.394-0.87 0.52-2.103 0.6-3.064 0.215-0.669-0.253-1.094-0.836-1.436-1.421-0.445-0.857-0.644-1.77-0.498-2.763l0.035-0.028z"></path>
            <path d="M0.216 25.18c0.279-1.641 1.387-2.996 2.755-3.886 1.244-0.861 2.586-1.577 3.788-2.485 0.771-0.864 1.146-1.992 1.832-2.926 1.141-1.355 3.028-1.737 4.719-1.827 2.166-0.079 4.61-0.053 6.348 1.431 1.004 0.99 1.255 2.518 2.368 3.425 1.067 0.852 2.27 1.458 3.387 2.242 1.539 1.025 2.972 2.606 2.975 4.566 0.045 1.531-0.537 3.040-1.295 4.345-0.814 1.264-2.27 2.037-3.778 1.926-1.579 0.020-2.992-0.845-4.542-0.949-1.531 0.368-3.127 0.593-4.717 0.534-1.516 0.104-2.991-0.366-4.462-0.523-1.829 0.318-3.637 1.229-5.534 0.84-1.705-0.394-2.879-1.897-3.354-3.52-0.365-0.994-0.726-2.132-0.49-3.192z"></path>
            <path d="M5.116 8.708c0.055-1.351 0.282-2.676 0.596-3.998 0.523-1.758 1.118-3.955 3.026-4.636 1.814-0.286 2.973 1.65 3.594 3.107 0.881 2.016 1.498 4.175 1.705 6.371 0.11 2.028-1.695 3.43-3.536 3.722-1.687 0.507-3.725-0.051-4.622-1.656-0.565-0.87-0.779-1.97-0.763-2.91z"></path>
            <path d="M14.544 9.165c0.169-1.029 0.274-2.121 0.641-3.066 0.079-0.793 0.546-1.464 0.678-2.237 0.41-0.499 0.376-1.125 0.832-1.561 0.22-0.496 0.514-0.966 0.915-1.373 0.314-0.385 0.775-0.674 1.266-0.794 0.713-0.379 1.394 0.126 1.937 0.474 0.333 0.287 0.423 0.723 0.829 0.947 0.131 0.592 0.605 1.044 0.676 1.662 0.347 0.878 0.61 1.821 0.728 2.81 0.233 0.99 0.395 2.159 0.375 3.138-0.178 0.826-0.218 1.708-0.729 2.398-0.225 0.402-0.645 0.799-0.964 1.125-0.913 0.683-2.075 0.835-3.217 0.72-0.876-0.207-1.714-0.374-2.435-0.903-0.473-0.323-0.921-0.686-1.144-1.213-0.29-0.617-0.499-1.434-0.389-2.128z"></path>
            <path d="M22.238 13.84c0.214-0.63 0.42-1.216 0.731-1.792 0.179-0.468 0.481-0.935 0.727-1.373 0.427-0.407 0.744-0.828 1.236-1.052 0.742-0.435 1.653-0.036 2.059 0.595 0.3 0.453 0.601 0.905 0.755 1.418 0.429 0.986 0.548 2.102 0.638 3.226 0.181 0.911 0.239 1.928-0.18 2.768-0.132 0.488-0.413 1.039-0.896 1.309-0.393 0.758-1.531 0.964-2.372 0.884-0.879-0.077-1.632-0.422-2.361-0.846-0.593-0.517-1.041-1.128-0.928-1.946-0.313-0.944 0.285-2.328 0.592-3.192z"></path>
        </symbol>
    </defs>
</svg>
